<svg width="13" height="12" viewBox="0 0 13 12" fill="none" xmlns="http://www.w3.org/2000/svg">
<path d="M3.89281 6.75H5.69647L3.02266 2.25403C2.80724 1.88972 2.32992 1.76552 1.95821 1.9808C1.58649 2.19193 1.45977 2.65975 1.67942 3.02406L3.89281 6.75Z" fill="#4A4A4A"/>
<path fill-rule="evenodd" clip-rule="evenodd" d="M6.44647 12C9.76018 12 12.4465 9.31371 12.4465 6C12.4465 2.68629 9.76018 0 6.44647 0C3.13276 0 0.446472 2.68629 0.446472 6C0.446472 9.31371 3.13276 12 6.44647 12Z" fill="#00AC5B"/>
<path fill-rule="evenodd" clip-rule="evenodd" d="M5.49808 9.75L2.32147 6.6346L3.38025 5.59617L5.49808 7.67315L10.2627 3L11.3215 4.03842L5.49808 9.75Z" fill="white"/>
</svg>
