<svg width="30" height="30" viewBox="0 0 30 30" fill="none" xmlns="http://www.w3.org/2000/svg">
<path fill-rule="evenodd" clip-rule="evenodd" d="M24.6131 12.3178V24.2852C24.6131 24.6188 24.3426 24.8893 24.009 24.8893H5.88398C5.5503 24.8893 5.27981 24.6188 5.27981 24.2852V12.3178L2.90664 6.38491C2.83205 6.19878 2.85466 5.98776 2.96701 5.82167C3.07935 5.65557 3.26679 5.55604 3.46731 5.55599H15.5506C15.7975 5.55605 16.0195 5.70627 16.1113 5.93541L17.9673 10.5754L19.8233 5.93541C19.9151 5.70627 20.1371 5.55605 20.384 5.55599H26.4256C26.6262 5.55604 26.8136 5.65557 26.9259 5.82167C27.0383 5.98776 27.0609 6.19878 26.9863 6.38491L24.6131 12.3178ZM18.5715 12.806V23.681H23.4048V12.806H18.5715ZM17.3631 12.806H6.48814V23.681H17.3631V12.806ZM6.2936 11.5977H17.0744L15.141 6.76433H4.36148L6.29481 11.5977H6.2936ZM23.5981 11.5977L25.5315 6.76433H20.7948L18.8615 11.5977H23.6006H23.5981ZM16.1548 19.4518V21.8685C16.1548 22.2022 15.8843 22.4727 15.5506 22.4727H11.9256C11.592 22.4727 11.3215 22.2022 11.3215 21.8685V19.4518C11.3215 19.1182 11.592 18.8477 11.9256 18.8477H15.5506C15.8843 18.8477 16.1548 19.1182 16.1548 19.4518ZM14.9465 20.056H12.5298V21.2643H14.9465V20.056Z" fill="white"/>
</svg>
